<?xml version="1.0" encoding="utf-8"?>
<!-- Generator: Adobe Illustrator 22.1.0, SVG Export Plug-In . SVG Version: 6.00 Build 0)  -->
<svg version="1.1" id="Lager_1" xmlns="http://www.w3.org/2000/svg" xmlns:xlink="http://www.w3.org/1999/xlink" x="0px" y="0px"
	 viewBox="0 0 170.3 93.8" style="enable-background:new 0 0 170.3 93.8;" xml:space="preserve">
<style type="text/css">
	.st0{fill:#3E4347;}
	.st1{fill:#02826A;}
	.st2{fill:#004D40;}
	.st3{fill:#FFC7CE;}
	.st4{fill:#FED0AC;}
	.st5{fill:#E0A372;}
	.st6{fill:#DBB471;}
	.st7{fill:#664E27;}
	.st8{fill:#FF4848;}
</style>
<title>dancing_couple</title>
<g id="Lager_2_1_">
	<g id="Lager_1-2">
		<path class="st0" d="M11.8,88.9c-0.9,1.5-0.9,3.4,0,4.9h4.5V92c0,0,0.8,1.8,7.6,1.8c2.4,0,2.6-2.3,0.1-2.4s-2.1-1.9-4.5-4.9
			L11.8,88.9z"/>
		<path class="st0" d="M38.7,88.9c-0.9,1.5-0.9,3.4,0,4.9h4.5V92c0,0,0.7,1.8,7.6,1.8c2.4,0,2.6-2.3,0.1-2.4s-2.1-1.9-4.5-4.9
			L38.7,88.9z"/>
		<path class="st1" d="M43.6,72.2c-0.7-3.9-6.7-6.6-10.5-14.3c-5.1-1.3-10.4-2-15.7-1.9c0,0-4.1,2-1.9,11.3c1.4,5.7-1.5,15.2-6,22.1
			c4.4,1.5,9.1,1.5,13.4,0c0,0-2-4.8,1.5-14.2c1.1-3-1.5-6,1.2-12.7c0,0,1.3,2.8,10.8,11.3c0,0-1.9,8.8,0.3,15.6
			c0,0,1.4,0.6,6.6,0.6c2.4,0.1,4.8-0.1,7.2-0.6C50.7,89.5,46.1,85.2,43.6,72.2z"/>
		<path class="st2" d="M23.6,57.5c-3.3-1.6-5.3-1.8-6.5-1.3c-1,0.9-1.7,2.2-1.9,3.6c2.8,1.5,7.1,1.3,7.1,1.3
			C23,60,23.5,58.8,23.6,57.5z"/>
		<path class="st1" d="M29.6,30.5c0,0,11.3-3.4,16.2-12.6c0,0,0.8,3.5,6.5,7c0,0-8.5,6.4-14.4,9.1c0.1,7.9,1.5,15.8,4.2,23.2
			c0,0-0.4,1.4-11.1,1.4C30.9,58.6,36.4,48.8,29.6,30.5z"/>
		<path class="st1" d="M21.7,31c0,0-5.2-3.1-7.8-1C0,40.9-0.8,43.6,0.8,52.2c0,0,2.8-2.1,7.8,0.3c0,0-2.2-8.5,7.8-13.1
			c0,0,0.3,6.5-3.3,17.5c0,0,2.2,3,8.6,3C21.7,59.9,28.5,45.7,21.7,31z"/>
		<path class="st2" d="M47,16.3c0,0,6,3.3,6,8.4h-3.4c0,0-0.3-2.8-1.8-3.9S47,16.3,47,16.3z"/>
		<path class="st3" d="M47,16.3c-1.5,1.3-3,2.7-4.4,4.2c0.3,1.3,0.8,2.4,1.7,3.4l3.9-2l-2.8,3.6c0.8,1.1,2,2,3.2,2.5
			c1.6-0.9,3.2-2,4.5-3.3C50,22.8,47.8,19.8,47,16.3z"/>
		<path class="st4" d="M53,16.5c0,0,3-2.5,2.2-3.4s-1.4-0.9-2.2,0c-0.3,0.4-0.9,1-2,2.1c-1.1-0.9-1.6,0-1.8,0.4
			c-0.4,0.8-0.7,1.6-0.9,2.4c0.8,2.1,2.2,4,4.2,5.2c1.5-0.9,3.8-2.5,3.8-3.2C56.2,18.6,53,16.5,53,16.5z"/>
		<path class="st5" d="M49.2,17.5c0.7-0.1,1.4,0,2,0.3L51,18C50.5,17.7,49.9,17.5,49.2,17.5z"/>
		<path class="st2" d="M0.6,53.8c0,0,2.5,1.8,8.9,0.3C9.5,54.1,6.2,51.4,0.6,53.8z"/>
		<path class="st4" d="M2.3,52.3c-1,2.4-0.6,5.2,1.1,7.2c0.7,1,2.9,1.8,5.1,0.8s0.3-1.8-0.6-3.6C8.5,56.2,9,55.6,8.7,55
			c-0.5-0.7-1.1-1.2-1.9-1.6C6.8,53.4,7.6,51.8,2.3,52.3z"/>
		<path class="st5" d="M8.7,55c0-0.1-0.1-0.2-0.1-0.2c0.2,0.5-0.4,1.3-0.8,1c-0.6-0.6-1.3-1.3-1.3-1.3c0.6,0.7,1.1,1.4,1.5,2.3
			C8.5,56.2,9,55.6,8.7,55z"/>
		<path class="st3" d="M0,48.6c0.4,1.7,0.6,3.5,0.6,5.2c0,0,3.6-1.4,8.9,0.3c0,0-0.9-3.2,0.1-5.5c0,0-0.6-1.3-3.2-1.7l-1.1,4.5
			l-1-4.3C2.7,46.6,1,47.2,0,48.6z"/>
		<path class="st5" d="M54,21.2c-0.5,0.4-1.4,1.2-2.7-0.2s-0.5-2.4,0.1-3.1c0.4-0.4,0.6-0.9,0.6-1.4c0-0.7-1.3-1.3-0.7-0.8
			c0,0,0.9,0.4-0.4,2.2c-0.5,0.7-1.1,1.6-0.5,2.6s1.7,2.3,3.2,1.4S54.8,20.5,54,21.2z"/>
		<polygon class="st5" points="29.6,30 22.8,30 28.2,38.8 		"/>
		<path class="st3" d="M34.3,31.4c-0.8-0.9-2.7-0.4-2.7-0.4l2.2-3c-1.4,0.8-3,1.4-4.6,1.5c-1.6,3.2-1,9.1-1,9.1s-1.2-6.1-5.4-9
			c-1.7-0.2-3.5-0.1-5.2,0.3l4.1,2.1l-3.1,1.3c1.6,0.3,3.2,0.9,4.6,1.7c1.5,7.4,1.3,15.1-0.6,22.5l8.5,0.4c0,0,4.5-8.7-0.3-23.5
			C31.9,33.3,33,32.3,34.3,31.4z"/>
		<path class="st2" d="M30.9,58.6c0,0,8.9-3.3,11.1-1.4C42,57.2,41.8,58.6,30.9,58.6z"/>
		<path class="st1" d="M28.2,39.4c1.2,5.5,0.7,11.2-1.2,16.4C27,55.8,31.6,47.7,28.2,39.4z"/>
		<path class="st4" d="M22.8,9.3C10.6,9.3,12,6.2,12,21.7c0,7.4,6.6,9.5,13.4,9.4s10.7-1.7,10.7-9.1C36.2,9.7,32.9,9.3,22.8,9.3z"/>
		<path class="st6" d="M17.2,30.2c-0.1,1.2-0.2,3.1-4.6,2.4c0,0,0.6-7.5-2.7-11.7s-4.1-8-1.4-11c0,0-3.1-6.8,11.1-8.7
			C26.6,0.3,32.9,3,39.5,0c0,0,5.9,11.7-5.3,13.1s-11.3-2.4-17.8-1.6c0.4,3.8,1.3,7.5,2.6,11.1c0.1,0.9-0.4,1.7-1.2,2.1
			c0,0-1.4-6.1-3.6-7.5s-2.2,2.1-1.1,4s1.9,1.6,1.9,1.6S17.6,26.5,17.2,30.2z"/>
		<circle class="st7" cx="21.7" cy="17.9" r="2.3"/>
		<circle class="st7" cx="32.7" cy="17.8" r="2.3"/>
		<path class="st7" d="M30.8,24.8c-2.1,1.8-5.2,1.8-7.2,0c-0.3-0.2-0.5,0.2-0.3,0.5c1.1,2.2,3.8,3.1,5.9,2c0.9-0.4,1.6-1.1,2-2
			C31.4,24.9,31.1,24.5,30.8,24.8z"/>
		<path class="st2" d="M166.5,49.6c-2.4,19.2-40.9,17.1-42.8,7.3c-14.4,7.3-10.4,18.8-10.4,18.8C126.4,105.4,185.8,75.5,166.5,49.6z
			"/>
		<path class="st8" d="M147.4,78.9c4.9,3,2.1,6.8-5.1,3.6c-6.1-2.7-0.9-8,1.2-6.2C144.7,77.4,146,78.2,147.4,78.9z"/>
		<path class="st4" d="M143.1,78.5c-5.5-4.6-4.7-7-10.1-8.4c-5-7.9-9.2-10.7-9.2-10.7c-1.6,2-2.2,4.7-1.6,7.2c0,0,5.3,6.9,9.2,8.8
			c3.4,1.7,6.6,3.6,9.8,5.7C143.4,83,145.6,80.6,143.1,78.5z"/>
		<path class="st8" d="M122.2,90c0.2,6.2-9.1,3.6-5.7,1c0.5-0.4,0.5-1.4,0.2-2.1c-2-5.8,5-6.3,5.1-3.6
			C121.9,87.5,122.2,88.9,122.2,90z"/>
		<path class="st4" d="M120.2,86.5c-0.4-6.8,2-8-0.7-12.5c0.8-4-1.1-10.5-1.1-10.5c-2.1,0.2-4.2,0.6-6.2,1.1c0,0,0.9,8.2,2.2,12.1
			c1.1,3.4,1.9,6.9,2.6,10.4C117.1,89.9,120.4,89.5,120.2,86.5z"/>
		<path class="st6" d="M136.1,13.4c4.3,11.9,18.7,15.7,26.5,4.8c4.1,15.5-17.4,22.8-29.6,23.1c-38.1,1-34-20.3-34-23
			C99-5.6,129.5-4.9,136.1,13.4z"/>
		<path class="st4" d="M142.3,48c-2.5-1.4-3.4-1.9-4.1-1.2L127,39.7c-1.8-1.1-3.8-1.9-5.8-2.3c-2.2,2.1,0.7,4.1,0.7,4.1l14.4,8.4
			l-0.5,0.9c-0.4,0.7-0.2,1.6,0.5,2c0,0,0,0,0,0l1,0.5c0.5,0.3,1.1,0.3,1.6-0.1c1.3,0.6,3.3,1.1,4.6-1.2c0.8-1.2,0.6-2.9-0.7-3.7
			C142.7,48.2,142.5,48.1,142.3,48z"/>
		<path class="st4" d="M101,38.7l-6.9-6.8l0,0c0.6-0.6,0.5-1.5,0-2.1c0,0,0,0,0,0L93.2,29c-0.4-0.4-1-0.5-1.5-0.3
			c-1.2-0.9-2.9-1.9-4.8,0.1c-1.1,0.9-1.3,2.6-0.4,3.7c0.1,0.2,0.3,0.3,0.5,0.5c2.1,1.9,2.8,2.6,3.7,2.1l8.9,8.7l10-1l2.4-5.5
			L101,38.7z"/>
		<path class="st1" d="M117,71.4c15.7-5.2,18.1,0.5,37.5-1.1s12-20.7,12-20.7c-3.2,16.5-40.6,10.5-42.6,0.8c3.4-3.4,3.1-6.5-2.8-13
			c-2.5,2.5-6.6,2.5-9.1,0c-10.1,10.7-2.4,14-2.4,14c2.6,5.1-1.3,10.9,3.5,24.4C113.2,75.7,114.8,72.1,117,71.4z"/>
		<path class="st4" d="M129.3,20.9c0.3-6.9-3-7.4-3-7.4c-15,0-22.6,7.4-22.6,7.4s-3.7-2.5-3.7,2.4c0,1.9,0.7,3.4,3.1,3.5
			c0.8,6.1,4.3,8.2,9.4,8.8v1.7h-0.5l-3.3,5.1c0,1.1,3.3-3.2,7.8,2.4c4.5-5.6,7.8-1.4,7.8-2.4l-3.3-5.1h-0.7v-1.7
			c5.2-0.6,8.6-2.8,9.5-8.9c2.4-0.2,3.1-1.7,3.1-3.5C133,18.4,129.3,20.9,129.3,20.9z"/>
		<path class="st5" d="M92.8,32.3c-0.6-0.5-1.2-1.1-1.7-1.7c-0.2-0.4-0.2-0.9,0.1-1.3l0.1-0.1c0.2-0.2-0.1-0.5-0.3-0.3
			c-0.4,0.4-0.5,1-0.4,1.5c0.1,0.4,0.3,0.7,0.6,1l1.4,1.3C92.7,32.8,93,32.5,92.8,32.3z"/>
		<circle class="st7" cx="110.8" cy="21.6" r="2.4"/>
		<circle class="st7" cx="122.5" cy="21.6" r="2.4"/>
		<path class="st7" d="M120.5,28.9c-2.2,1.9-5.5,1.9-7.7,0c-0.3-0.2-0.6,0.2-0.4,0.5c1.2,2.3,4,3.3,6.3,2.1c0.9-0.5,1.7-1.2,2.1-2.1
			C121,29.1,120.8,28.7,120.5,28.9z"/>
	</g>
</g>
</svg>
